<?xml version="1.0" standalone="no"?><!DOCTYPE svg PUBLIC "-//W3C//DTD SVG 1.1//EN" "http://www.w3.org/Graphics/SVG/1.1/DTD/svg11.dtd"><svg t="1544583505321" class="icon" style="" viewBox="0 0 1077 1024" version="1.1" xmlns="http://www.w3.org/2000/svg" p-id="4623" xmlns:xlink="http://www.w3.org/1999/xlink" width="16.828125" height="16"><defs><style type="text/css"></style></defs><path d="M941.034854 567.839606a462.305252 462.305252 0 0 0 7.681072-83.491464A460.685677 460.685677 0 0 0 488.054066 23.69819c-29.307159 0-87.457041 8.264595-87.45704 8.264596a272.541099 272.541099 0 0 0-366.273992 372.978555m0 0a464.06773 464.06773 0 0 0-6.930828 79.406801 460.495139 460.495139 0 0 0 541.354794 453.504768A272.576825 272.576825 0 0 0 941.034854 567.839606m0 0" fill="#00AEF3" p-id="4624"></path><path d="M489.899905 766.463786c-163.672326 0-236.874727-80.46667-236.874727-140.760106 0-30.96246 22.816951-52.612365 54.303392-52.612365 70.034703 0 51.885938 100.58036 182.571335 100.58036 66.867005 0 103.843327-36.333256 103.843327-73.512025 0-22.352514-11.039308-47.122482-55.077453-57.98316l-145.523561-36.345165c-117.228637-29.39052-138.485556-92.780202-138.485556-152.347211 0-123.695027 116.454575-170.1149 225.82351-170.1149 100.747081 0 219.500023 55.649067 219.500023 129.863702 0 31.796065-27.520863 50.278271-58.983486 50.278272-59.781365 0-48.825418-82.717402-169.102665-82.717403-59.757548 0-92.88738 27.032609-92.88738 65.77141s47.193934 50.968972 88.123924 60.305345l107.761269 23.924455c118.002698 26.282365 147.917198 95.197655 147.917198 160.087826 0 100.520817-77.132251 175.580965-232.861515 175.580965z m0 0" fill="#FFFFFF" p-id="4625"></path></svg>